<svg width="48" height="39" viewBox="0 0 48 39" fill="none" xmlns="http://www.w3.org/2000/svg">
<path d="M2.16283 12.3819C2.16283 10.6971 0.897474 1.05726 5.42146 2.63965C8.36213 3.66823 8.27058 7.40065 10.1894 9.25045C11.6401 10.6491 13.8323 9.95895 15.6433 9.69328C17.0415 9.48815 18.207 9.85472 19.5879 9.97795C21.4068 10.1403 21.4756 7.21319 21.989 6.08739C22.7521 4.41425 24.1357 2.6177 26.0709 2.02285C27.4009 1.61403 27.9168 6.81401 28.0261 7.73218C28.1584 8.84411 28.0556 10.1108 28.6264 11.1325C29.5221 12.7358 31.136 14.0058 31.885 15.6715C33.2496 18.7063 31.69 22.5894 29.5696 24.9709C27.2272 27.6017 23.4925 28.3053 19.9653 28.7349C17.5225 29.0324 15.0872 29.4876 12.7277 28.6717C10.5074 27.9039 7.95345 28.0371 5.81593 26.9478C2.81247 25.4172 2.382 22.337 3.15757 19.562C3.53952 18.1955 3.93408 14.3746 5.86738 14.3746C7.35885 14.3746 8.40118 16.6903 7.51385 17.7907C7.04836 18.368 3.7407 19.2182 3.7407 19.6727C3.7407 20.5078 7.52665 22.5727 8.33708 22.6302C9.21356 22.6924 10.9214 22.4273 11.5957 21.9185C12.2462 21.4277 12.831 21.1501 13.0707 20.3212C13.4039 19.169 13.1161 17.6517 11.4928 18.2652C7.21491 19.8819 9.44249 30.4435 13.5852 27.5329C14.5376 26.8638 14.8151 25.1824 15.1116 24.2117C15.713 22.2429 16.3595 20.2851 16.9467 18.3126C17.0669 17.9089 17.6383 14.3287 17.5985 16.0194C17.5409 18.4595 15.5484 24.3456 17.7871 26.4101C19.0383 27.5638 20.8309 24.144 21.0629 23.7689C21.4224 23.1877 24.3903 16.953 25.5907 20.0365C26.1407 21.4493 24.1762 26.2019 26.311 25.8249C27.7234 25.5755 31.4031 25.5216 32.228 24.3383C33.096 23.0931 32.8661 21.0451 34.5776 20.1314C36.007 19.3683 37.8095 24.5119 38.2479 25.2081C38.8846 26.2193 39.6607 25.1826 40.1688 24.5597C41.1183 23.3954 41.7333 22.1181 42.467 20.8431C42.5539 20.692 42.6273 20.3134 42.7757 20.4161C43.4718 20.8975 42.9062 22.0176 42.9129 22.82C42.942 26.314 43.0507 29.8454 42.8786 33.3372C42.7358 36.2337 40.9947 37.698 37.7334 36.6742C35.2077 35.8813 33.5914 33.1662 34.9893 30.8225C36.627 28.0767 43.124 28.1861 46 27.7544" stroke="#2E70BD" stroke-width="3" stroke-linecap="round"/>
<path d="M13.2554 19.2984C15.213 19.3331 17.1674 19.4705 19.1209 19.5831" stroke="#2E70BD" stroke-width="3" stroke-linecap="round"/>
</svg>
